<svg xmlns="http://www.w3.org/2000/svg" width="1200" height="360" viewBox="0 0 1200 360" role="img" aria-label="VibeSnake banner">
  <defs>
    <linearGradient id="sky" x1="0" x2="0" y1="0" y2="1">
      <stop offset="0%" stop-color="#d9f7ff" />
      <stop offset="100%" stop-color="#fef6d6" />
    </linearGradient>
    <linearGradient id="grass" x1="0" x2="0" y1="0" y2="1">
      <stop offset="0%" stop-color="#b6ee8a" />
      <stop offset="100%" stop-color="#7bd36a" />
    </linearGradient>
    <filter id="shadow" x="-20%" y="-20%" width="140%" height="140%">
      <feDropShadow dx="0" dy="6" stdDeviation="6" flood-color="#3a7a3a" flood-opacity="0.3" />
    </filter>
  </defs>

  <rect width="1200" height="360" fill="url(#sky)" />
  <rect y="210" width="1200" height="150" fill="url(#grass)" />

  <g opacity="0.35">
    <circle cx="100" cy="70" r="28" fill="#ffffff" />
    <circle cx="170" cy="55" r="20" fill="#ffffff" />
    <circle cx="240" cy="80" r="26" fill="#ffffff" />
  </g>

  <g filter="url(#shadow)">
    <path
      d="M120 250 C200 170, 340 170, 420 230 C520 310, 670 300, 760 220 C850 140, 980 150, 1080 230"
      fill="none"
      stroke="#2f7a3c"
      stroke-width="70"
      stroke-linecap="round"
    />
    <path
      d="M120 250 C200 170, 340 170, 420 230 C520 310, 670 300, 760 220 C850 140, 980 150, 1080 230"
      fill="none"
      stroke="#63d36d"
      stroke-width="56"
      stroke-linecap="round"
    />
  </g>

  <g transform="translate(1020 190)">
    <circle cx="0" cy="0" r="46" fill="#56c95f" stroke="#2f7a3c" stroke-width="8" />
    <circle cx="-14" cy="-10" r="8" fill="#ffffff" />
    <circle cx="14" cy="-10" r="8" fill="#ffffff" />
    <circle cx="-12" cy="-10" r="4" fill="#2a241a" />
    <circle cx="16" cy="-10" r="4" fill="#2a241a" />
    <path d="M-6 12 Q0 18 6 12" stroke="#2a241a" stroke-width="4" fill="none" stroke-linecap="round" />
  </g>

  <g>
    <circle cx="250" cy="250" r="18" fill="#ff4242" />
    <circle cx="290" cy="250" r="18" fill="#7c3aed" />
    <circle cx="330" cy="250" r="18" fill="#ff9f5a" />
    <circle cx="370" cy="250" r="18" fill="#ffd24a" />
  </g>

  <g>
    <text x="70" y="120" font-family="'Chalkboard SE','Comic Sans MS','Trebuchet MS',sans-serif" font-size="64" fill="#2a241a">
      VibeSnake
    </text>
    <text x="70" y="160" font-family="'Chalkboard SE','Comic Sans MS','Trebuchet MS',sans-serif" font-size="24" fill="#5a4a2a">
      A playful, themed Snake adventure
    </text>
  </g>
</svg>
